# xmcd
#
# Track frame offsets:
#	150
#	16483
#	40171
#	55708
#	70026
#	88428
#	104516
#	121192
#	141155
#	153895
#	173988
#
# Disc length: 4677 seconds
#
# Revision: 2
# Processed by: cddbd v1.5.1PL0 Copyright (c) Steve Scherf et al.
# Submitted via: audiograbber 1.83.01
#
DISCID=9012430b
DTITLE=Lee Kernaghan - Electric Rodeo 2
DYEAR=2003
DGENRE=Country
TTITLE0=I`m From The Country (with Travis Sinclair)
TTITLE1=Spirit Of The High Country
TTITLE2=Love Hurts (with Catherine Britt)
TTITLE3=Conargo Chicargo
TTITLE4=In My Next Life
TTITLE5=This Is The Outback
TTITLE6=Mate
TTITLE7=Diamantina Drover
TTITLE8=Boys From Bathurst
TTITLE9=Great Balls Of Fire (Live at Gympie Muster)
TTITLE10=Electirc Rodeo Documentary
EXTD=
EXTT0=
EXTT1=
EXTT2=
EXTT3=
EXTT4=
EXTT5=
EXTT6=
EXTT7=
EXTT8=
EXTT9=
EXTT10=
PLAYORDER=
